<svg xmlns="http://www.w3.org/2000/svg" xmlns:xlink="http://www.w3.org/1999/xlink" width="125" zoomAndPan="magnify" viewBox="0 0 93.75 30.000001" height="40" preserveAspectRatio="xMidYMid meet" version="1.0"><defs><clipPath id="c10dfac186"><path d="M 19 10 L 31 10 L 31 21.351562 L 19 21.351562 Z M 19 10 " clip-rule="nonzero"/></clipPath><clipPath id="709d594991"><path d="M 54 10 L 66 10 L 66 21.351562 L 54 21.351562 Z M 54 10 " clip-rule="nonzero"/></clipPath><clipPath id="f477f20be6"><path d="M 66 7.558594 L 78 7.558594 L 78 21.351562 L 66 21.351562 Z M 66 7.558594 " clip-rule="nonzero"/></clipPath><clipPath id="b6c1f533a6"><path d="M 8 10 L 20 10 L 20 21.351562 L 8 21.351562 Z M 8 10 " clip-rule="nonzero"/></clipPath><clipPath id="b24976cac4"><path d="M 81 10 L 92.117188 10 L 92.117188 21.351562 L 81 21.351562 Z M 81 10 " clip-rule="nonzero"/></clipPath><clipPath id="01ee5ab106"><path d="M 78 7.558594 L 81 7.558594 L 81 21.351562 L 78 21.351562 Z M 78 7.558594 " clip-rule="nonzero"/></clipPath><clipPath id="bac779a4fe"><path d="M 1.390625 7.558594 L 8 7.558594 L 8 21.351562 L 1.390625 21.351562 Z M 1.390625 7.558594 " clip-rule="nonzero"/></clipPath><clipPath id="5ef817a306"><path d="M 31 10 L 43 10 L 43 21.351562 L 31 21.351562 Z M 31 10 " clip-rule="nonzero"/></clipPath><clipPath id="6018f0dd48"><path d="M 42 7.558594 L 54 7.558594 L 54 21.351562 L 42 21.351562 Z M 42 7.558594 " clip-rule="nonzero"/></clipPath></defs><g clip-path="url(#c10dfac186)"><path fill="#ffffff" d="M 25.203125 10.507812 C 22.183594 10.507812 19.734375 12.945312 19.734375 15.953125 C 19.734375 18.957031 22.183594 21.394531 25.203125 21.394531 C 26.40625 21.394531 27.515625 21.007812 28.417969 20.355469 L 28.417969 21.078125 L 30.675781 21.078125 L 30.675781 16.222656 L 30.671875 16.222656 C 30.675781 16.132812 30.675781 16.042969 30.675781 15.953125 C 30.675781 12.945312 28.226562 10.507812 25.203125 10.507812 Z M 25.203125 19.140625 C 23.433594 19.140625 22 17.710938 22 15.949219 C 22 14.191406 23.433594 12.761719 25.203125 12.761719 C 26.976562 12.761719 28.410156 14.191406 28.410156 15.949219 C 28.410156 17.710938 26.976562 19.140625 25.203125 19.140625 Z M 25.203125 19.140625 " fill-opacity="1" fill-rule="nonzero"/></g><g clip-path="url(#709d594991)"><path fill="#ffffff" d="M 60.082031 10.507812 C 57.0625 10.507812 54.613281 12.945312 54.613281 15.953125 C 54.613281 18.957031 57.0625 21.394531 60.082031 21.394531 C 61.285156 21.394531 62.394531 21.007812 63.296875 20.355469 L 63.296875 21.078125 L 65.554688 21.078125 L 65.554688 16.222656 L 65.550781 16.222656 C 65.554688 16.132812 65.554688 16.042969 65.554688 15.953125 C 65.554688 12.945312 63.105469 10.507812 60.082031 10.507812 Z M 60.082031 19.140625 C 58.3125 19.140625 56.878906 17.710938 56.878906 15.949219 C 56.878906 14.191406 58.3125 12.761719 60.082031 12.761719 C 61.855469 12.761719 63.289062 14.191406 63.289062 15.949219 C 63.289062 17.710938 61.855469 19.140625 60.082031 19.140625 Z M 60.082031 19.140625 " fill-opacity="1" fill-rule="nonzero"/></g><g clip-path="url(#f477f20be6)"><path fill="#ffffff" d="M 72.074219 10.507812 C 70.875 10.507812 69.765625 10.894531 68.863281 11.546875 L 68.863281 7.628906 L 66.601562 7.628906 L 66.601562 21.078125 L 68.863281 21.078125 L 68.863281 20.359375 C 69.765625 21.007812 70.875 21.394531 72.074219 21.394531 C 75.097656 21.394531 77.546875 18.957031 77.546875 15.953125 C 77.546875 12.945312 75.097656 10.507812 72.074219 10.507812 Z M 72.074219 19.140625 C 70.304688 19.140625 68.871094 17.710938 68.871094 15.953125 C 68.871094 14.191406 70.304688 12.761719 72.074219 12.761719 C 73.847656 12.761719 75.28125 14.191406 75.28125 15.953125 C 75.28125 17.710938 73.847656 19.140625 72.074219 19.140625 Z M 72.074219 19.140625 " fill-opacity="1" fill-rule="nonzero"/></g><g clip-path="url(#b6c1f533a6)"><path fill="#ffffff" d="M 13.578125 19.140625 C 12.207031 19.140625 11.035156 18.28125 10.578125 17.074219 L 18.933594 17.074219 C 19.011719 16.710938 19.050781 16.335938 19.050781 15.953125 C 19.050781 12.945312 16.601562 10.507812 13.578125 10.507812 C 10.554688 10.507812 8.105469 12.945312 8.105469 15.953125 C 8.105469 18.957031 10.554688 21.394531 13.578125 21.394531 C 15.792969 21.394531 17.695312 20.085938 18.558594 18.207031 L 15.84375 18.207031 C 15.265625 18.785156 14.464844 19.140625 13.578125 19.140625 Z M 13.578125 12.761719 C 14.949219 12.761719 16.121094 13.621094 16.578125 14.828125 L 10.578125 14.828125 C 11.035156 13.621094 12.207031 12.761719 13.578125 12.761719 Z M 13.578125 12.761719 " fill-opacity="1" fill-rule="nonzero"/></g><g clip-path="url(#b24976cac4)"><path fill="#ffffff" d="M 86.644531 19.140625 C 85.273438 19.140625 84.101562 18.28125 83.644531 17.074219 L 92 17.074219 C 92.074219 16.710938 92.117188 16.335938 92.117188 15.953125 C 92.117188 12.945312 89.667969 10.507812 86.644531 10.507812 C 83.621094 10.507812 81.171875 12.945312 81.171875 15.953125 C 81.171875 18.957031 83.621094 21.394531 86.644531 21.394531 C 88.855469 21.394531 90.761719 20.085938 91.625 18.207031 L 88.910156 18.207031 C 88.332031 18.785156 87.527344 19.140625 86.644531 19.140625 Z M 86.644531 12.761719 C 88.015625 12.761719 89.1875 13.621094 89.644531 14.828125 L 83.644531 14.828125 C 84.101562 13.621094 85.273438 12.761719 86.644531 12.761719 Z M 86.644531 12.761719 " fill-opacity="1" fill-rule="nonzero"/></g><g clip-path="url(#01ee5ab106)"><path fill="#ffffff" d="M 80.492188 7.628906 L 78.230469 7.628906 L 78.230469 21.078125 L 80.492188 21.078125 Z M 80.492188 7.628906 " fill-opacity="1" fill-rule="nonzero"/></g><g clip-path="url(#bac779a4fe)"><path fill="#ffffff" d="M 4.765625 7.628906 L 2.5 7.628906 L 2.5 9.089844 L 1.390625 9.089844 L 1.390625 11.339844 L 2.5 11.339844 L 2.5 15.953125 C 2.5 18.957031 4.949219 21.394531 7.972656 21.394531 L 7.972656 19.140625 C 6.203125 19.140625 4.765625 17.714844 4.765625 15.953125 L 4.765625 11.339844 L 7.972656 11.339844 L 7.972656 9.089844 L 4.765625 9.089844 C 4.765625 9.089844 4.765625 7.628906 4.765625 7.628906 Z M 4.765625 7.628906 " fill-opacity="1" fill-rule="nonzero"/></g><g clip-path="url(#5ef817a306)"><path fill="#ffffff" d="M 36.832031 19.140625 C 35.0625 19.140625 33.625 17.710938 33.625 15.949219 C 33.625 14.191406 35.0625 12.761719 36.832031 12.761719 C 38.203125 12.761719 39.375 13.621094 39.832031 14.824219 L 42.1875 14.824219 C 41.667969 12.359375 39.46875 10.507812 36.832031 10.507812 C 33.808594 10.507812 31.359375 12.945312 31.359375 15.949219 C 31.359375 18.957031 33.808594 21.394531 36.832031 21.394531 C 39.46875 21.394531 41.667969 19.539062 42.1875 17.074219 L 39.832031 17.074219 C 39.375 18.28125 38.203125 19.136719 36.832031 19.136719 C 36.832031 19.136719 36.832031 19.140625 36.832031 19.140625 Z M 36.832031 19.140625 " fill-opacity="1" fill-rule="nonzero"/></g><g clip-path="url(#6018f0dd48)"><path fill="#ffffff" d="M 53.929688 15.953125 L 53.929688 15.855469 L 53.925781 15.855469 C 53.875 12.894531 51.449219 10.507812 48.457031 10.507812 C 47.257812 10.507812 46.148438 10.894531 45.246094 11.546875 L 45.246094 7.628906 L 42.984375 7.628906 L 42.984375 21.078125 L 45.246094 21.078125 L 45.246094 15.964844 L 45.253906 15.964844 L 45.253906 15.953125 C 45.253906 14.191406 46.6875 12.761719 48.457031 12.761719 C 50.230469 12.761719 51.664062 14.191406 51.664062 15.953125 L 51.664062 15.964844 L 51.671875 15.964844 L 51.671875 21.078125 L 53.929688 21.078125 Z M 53.929688 15.953125 " fill-opacity="1" fill-rule="nonzero"/></g></svg>