<svg xmlns="http://www.w3.org/2000/svg" xmlns:xlink="http://www.w3.org/1999/xlink" width="125" zoomAndPan="magnify" viewBox="0 0 93.75 30.000001" height="40" preserveAspectRatio="xMidYMid meet" version="1.0"><defs><clipPath id="809cbe638a"><path d="M 1.390625 15 L 17 15 L 17 25.6875 L 1.390625 25.6875 Z M 1.390625 15 " clip-rule="nonzero"/></clipPath><clipPath id="4d2ef9c87d"><path d="M 18 15 L 28 15 L 28 25.6875 L 18 25.6875 Z M 18 15 " clip-rule="nonzero"/></clipPath><clipPath id="71b71407a6"><path d="M 30 15 L 33 15 L 33 25.6875 L 30 25.6875 Z M 30 15 " clip-rule="nonzero"/></clipPath><clipPath id="9b461c2079"><path d="M 36 10 L 39 10 L 39 25.6875 L 36 25.6875 Z M 36 10 " clip-rule="nonzero"/></clipPath><clipPath id="c8f5a8c8db"><path d="M 41 15 L 51 15 L 51 25.6875 L 41 25.6875 Z M 41 15 " clip-rule="nonzero"/></clipPath><clipPath id="d38826aee1"><path d="M 53 15 L 60 15 L 60 25.6875 L 53 25.6875 Z M 53 15 " clip-rule="nonzero"/></clipPath><clipPath id="6a2d9d47dd"><path d="M 63 3.1875 L 91.246094 3.1875 L 91.246094 25.6875 L 63 25.6875 Z M 63 3.1875 " clip-rule="nonzero"/></clipPath></defs><g clip-path="url(#809cbe638a)"><path fill="#ffffff" d="M 13.1875 15.117188 C 11.683594 15.117188 10.503906 15.707031 9.675781 16.878906 C 9.386719 16.332031 8.976562 15.898438 8.441406 15.582031 C 7.90625 15.261719 7.328125 15.109375 6.703125 15.117188 C 6.113281 15.097656 5.546875 15.207031 5.007812 15.449219 C 4.46875 15.691406 4.011719 16.039062 3.632812 16.496094 L 3.632812 16.289062 C 3.632812 16.148438 3.601562 16.007812 3.546875 15.878906 C 3.492188 15.746094 3.410156 15.628906 3.308594 15.527344 C 3.207031 15.425781 3.089844 15.347656 2.960938 15.292969 C 2.828125 15.234375 2.6875 15.207031 2.546875 15.203125 C 2.402344 15.207031 2.265625 15.234375 2.132812 15.292969 C 2 15.347656 1.886719 15.425781 1.785156 15.527344 C 1.6875 15.628906 1.609375 15.746094 1.554688 15.878906 C 1.5 16.011719 1.476562 16.148438 1.476562 16.289062 L 1.476562 24.515625 C 1.488281 24.804688 1.601562 25.046875 1.808594 25.246094 C 2.019531 25.445312 2.265625 25.546875 2.554688 25.546875 C 2.84375 25.546875 3.09375 25.445312 3.304688 25.246094 C 3.511719 25.046875 3.625 24.804688 3.636719 24.515625 L 3.636719 18.832031 C 4.125 18.03125 4.863281 17.136719 6.203125 17.136719 C 7.46875 17.136719 7.960938 17.75 7.960938 19.347656 L 7.960938 24.527344 C 7.972656 24.8125 8.085938 25.058594 8.292969 25.257812 C 8.503906 25.457031 8.75 25.554688 9.042969 25.554688 C 9.332031 25.554688 9.578125 25.457031 9.789062 25.257812 C 9.996094 25.058594 10.109375 24.8125 10.121094 24.527344 L 10.121094 18.832031 C 10.609375 18.03125 11.347656 17.136719 12.6875 17.136719 C 13.953125 17.136719 14.445312 17.75 14.445312 19.347656 L 14.445312 24.527344 C 14.457031 24.8125 14.570312 25.058594 14.777344 25.257812 C 14.988281 25.457031 15.238281 25.554688 15.527344 25.554688 C 15.816406 25.554688 16.066406 25.457031 16.273438 25.257812 C 16.484375 25.058594 16.59375 24.8125 16.605469 24.527344 L 16.605469 19.003906 C 16.605469 17.128906 15.542969 15.117188 13.1875 15.117188 Z M 13.1875 15.117188 " fill-opacity="1" fill-rule="nonzero"/></g><g clip-path="url(#4d2ef9c87d)"><path fill="#ffffff" d="M 23.5 15.117188 C 22.316406 15.113281 21.179688 15.347656 20.09375 15.824219 C 19.902344 15.894531 19.75 16.015625 19.632812 16.183594 C 19.519531 16.351562 19.464844 16.539062 19.46875 16.742188 C 19.464844 16.863281 19.488281 16.980469 19.53125 17.097656 C 19.578125 17.210938 19.644531 17.3125 19.730469 17.398438 C 19.816406 17.488281 19.914062 17.554688 20.03125 17.601562 C 20.144531 17.648438 20.261719 17.671875 20.382812 17.671875 C 20.492188 17.671875 20.59375 17.652344 20.699219 17.625 C 21.503906 17.332031 22.335938 17.179688 23.191406 17.171875 C 24.863281 17.171875 25.550781 17.785156 25.566406 19.296875 L 23.441406 19.296875 C 20.542969 19.296875 18.8125 20.535156 18.8125 22.609375 C 18.8125 24.628906 20.492188 25.6875 22.152344 25.6875 C 23.445312 25.722656 24.582031 25.328125 25.570312 24.496094 L 25.570312 24.527344 C 25.585938 24.8125 25.695312 25.058594 25.902344 25.257812 C 26.113281 25.457031 26.363281 25.554688 26.652344 25.554688 C 26.941406 25.554688 27.191406 25.457031 27.398438 25.257812 C 27.609375 25.058594 27.71875 24.8125 27.730469 24.527344 L 27.730469 19.097656 C 27.726562 17.117188 26.417969 15.117188 23.5 15.117188 Z M 22.808594 23.746094 C 21.589844 23.746094 20.964844 23.300781 20.964844 22.417969 C 20.964844 22.09375 20.964844 21.105469 23.664062 21.105469 L 25.570312 21.105469 L 25.570312 22.433594 C 25 23.054688 23.960938 23.746094 22.808594 23.746094 Z M 22.808594 23.746094 " fill-opacity="1" fill-rule="nonzero"/></g><path fill="#ffffff" d="M 31.832031 11.28125 L 31.949219 11.28125 C 32.105469 11.28125 32.257812 11.3125 32.402344 11.371094 C 32.546875 11.433594 32.675781 11.515625 32.785156 11.628906 C 32.898438 11.738281 32.984375 11.867188 33.042969 12.011719 C 33.101562 12.15625 33.132812 12.304688 33.132812 12.464844 L 33.132812 12.539062 C 33.132812 12.695312 33.101562 12.847656 33.042969 12.992188 C 32.984375 13.136719 32.898438 13.265625 32.785156 13.375 C 32.675781 13.488281 32.546875 13.570312 32.402344 13.632812 C 32.257812 13.691406 32.105469 13.722656 31.949219 13.722656 L 31.832031 13.722656 C 31.675781 13.722656 31.523438 13.691406 31.378906 13.632812 C 31.234375 13.570312 31.105469 13.488281 30.992188 13.375 C 30.882812 13.265625 30.796875 13.136719 30.738281 12.992188 C 30.675781 12.847656 30.644531 12.695312 30.644531 12.539062 L 30.644531 12.464844 C 30.644531 12.304688 30.675781 12.15625 30.738281 12.011719 C 30.796875 11.867188 30.882812 11.738281 30.992188 11.628906 C 31.105469 11.515625 31.234375 11.433594 31.378906 11.371094 C 31.523438 11.3125 31.675781 11.28125 31.832031 11.28125 Z M 31.832031 11.28125 " fill-opacity="1" fill-rule="nonzero"/><g clip-path="url(#71b71407a6)"><path fill="#ffffff" d="M 31.871094 15.214844 C 31.726562 15.210938 31.589844 15.242188 31.457031 15.296875 C 31.324219 15.351562 31.207031 15.429688 31.105469 15.53125 C 31.003906 15.632812 30.929688 15.75 30.875 15.882812 C 30.820312 16.015625 30.796875 16.15625 30.800781 16.296875 L 30.800781 24.523438 C 30.8125 24.8125 30.921875 25.054688 31.132812 25.253906 C 31.339844 25.453125 31.589844 25.554688 31.878906 25.554688 C 32.167969 25.554688 32.417969 25.453125 32.628906 25.253906 C 32.835938 25.054688 32.945312 24.8125 32.960938 24.523438 L 32.960938 16.289062 C 32.960938 16.148438 32.933594 16.007812 32.875 15.875 C 32.820312 15.742188 32.742188 15.625 32.640625 15.523438 C 32.539062 15.425781 32.421875 15.347656 32.285156 15.292969 C 32.152344 15.238281 32.015625 15.210938 31.871094 15.214844 Z M 31.871094 15.214844 " fill-opacity="1" fill-rule="nonzero"/></g><g clip-path="url(#9b461c2079)"><path fill="#ffffff" d="M 37.335938 10.984375 C 37.191406 10.984375 37.054688 11.011719 36.921875 11.070312 C 36.789062 11.125 36.671875 11.203125 36.570312 11.304688 C 36.472656 11.40625 36.394531 11.523438 36.339844 11.65625 C 36.289062 11.789062 36.261719 11.929688 36.265625 12.070312 L 36.265625 24.515625 C 36.277344 24.804688 36.386719 25.046875 36.597656 25.246094 C 36.804688 25.445312 37.054688 25.546875 37.34375 25.546875 C 37.632812 25.546875 37.882812 25.445312 38.09375 25.246094 C 38.300781 25.046875 38.414062 24.804688 38.425781 24.515625 L 38.425781 12.070312 C 38.425781 11.925781 38.398438 11.789062 38.34375 11.65625 C 38.289062 11.519531 38.210938 11.402344 38.109375 11.300781 C 38.007812 11.199219 37.886719 11.121094 37.753906 11.066406 C 37.621094 11.011719 37.480469 10.984375 37.335938 10.984375 Z M 37.335938 10.984375 " fill-opacity="1" fill-rule="nonzero"/></g><g clip-path="url(#c8f5a8c8db)"><path fill="#ffffff" d="M 45.878906 15.117188 C 44.339844 15.117188 43.074219 15.6875 42.21875 16.765625 C 41.480469 17.699219 41.074219 18.988281 41.074219 20.402344 C 41.074219 23.710938 43.011719 25.6875 46.261719 25.6875 C 48.042969 25.6875 48.921875 25.28125 49.730469 24.816406 C 50.105469 24.640625 50.308594 24.34375 50.335938 23.929688 C 50.335938 23.800781 50.308594 23.679688 50.261719 23.5625 C 50.210938 23.441406 50.140625 23.339844 50.046875 23.25 C 49.957031 23.160156 49.851562 23.089844 49.730469 23.042969 C 49.613281 22.996094 49.488281 22.976562 49.359375 22.976562 C 49.203125 22.972656 49.058594 23.007812 48.917969 23.078125 C 48.136719 23.488281 47.300781 23.679688 46.417969 23.648438 C 44.625 23.648438 43.550781 22.808594 43.285156 21.21875 L 49.574219 21.21875 C 49.71875 21.226562 49.855469 21.203125 49.992188 21.152344 C 50.128906 21.097656 50.246094 21.023438 50.351562 20.921875 C 50.453125 20.820312 50.53125 20.703125 50.585938 20.570312 C 50.640625 20.433594 50.664062 20.296875 50.660156 20.152344 C 50.660156 16.699219 48.183594 15.117188 45.878906 15.117188 Z M 45.878906 17.003906 C 46.769531 17.003906 48.289062 17.511719 48.503906 19.394531 L 43.273438 19.394531 C 43.464844 17.742188 44.695312 17.003906 45.878906 17.003906 Z M 45.878906 17.003906 " fill-opacity="1" fill-rule="nonzero"/></g><g clip-path="url(#d38826aee1)"><path fill="#ffffff" d="M 58.136719 15.117188 L 58.039062 15.117188 C 57.015625 15.117188 56.070312 15.597656 55.222656 16.546875 L 55.222656 16.289062 C 55.21875 16.148438 55.191406 16.007812 55.136719 15.878906 C 55.078125 15.746094 55 15.628906 54.898438 15.527344 C 54.796875 15.425781 54.679688 15.347656 54.546875 15.292969 C 54.414062 15.234375 54.277344 15.207031 54.132812 15.203125 C 53.992188 15.207031 53.851562 15.234375 53.722656 15.289062 C 53.589844 15.347656 53.472656 15.425781 53.371094 15.527344 C 53.273438 15.628906 53.195312 15.746094 53.140625 15.878906 C 53.089844 16.011719 53.0625 16.148438 53.0625 16.289062 L 53.0625 24.515625 C 53.074219 24.804688 53.1875 25.046875 53.394531 25.246094 C 53.605469 25.445312 53.851562 25.546875 54.144531 25.546875 C 54.433594 25.546875 54.679688 25.445312 54.890625 25.246094 C 55.097656 25.046875 55.210938 24.804688 55.222656 24.515625 L 55.222656 18.757812 C 55.917969 17.761719 56.902344 17.210938 58 17.210938 L 58.097656 17.210938 C 58.238281 17.222656 58.375 17.203125 58.507812 17.15625 C 58.640625 17.105469 58.757812 17.035156 58.863281 16.9375 C 58.964844 16.839844 59.046875 16.726562 59.101562 16.597656 C 59.15625 16.46875 59.1875 16.332031 59.183594 16.191406 C 59.1875 16.050781 59.164062 15.914062 59.113281 15.78125 C 59.0625 15.652344 58.988281 15.535156 58.886719 15.433594 C 58.789062 15.332031 58.675781 15.253906 58.542969 15.199219 C 58.414062 15.144531 58.277344 15.117188 58.136719 15.117188 Z M 58.136719 15.117188 " fill-opacity="1" fill-rule="nonzero"/></g><g clip-path="url(#6a2d9d47dd)"><path fill="#ffffff" d="M 87.945312 3.1875 L 66.160156 3.1875 C 65.753906 3.1875 65.359375 3.265625 64.984375 3.421875 C 64.609375 3.578125 64.277344 3.796875 63.988281 4.085938 C 63.699219 4.371094 63.480469 4.703125 63.324219 5.078125 C 63.167969 5.453125 63.089844 5.84375 63.089844 6.25 L 63.089844 25.6875 L 67.316406 21.515625 L 87.945312 21.515625 C 88.351562 21.515625 88.746094 21.4375 89.121094 21.28125 C 89.496094 21.125 89.828125 20.90625 90.117188 20.617188 C 90.40625 20.332031 90.625 20 90.78125 19.625 C 90.9375 19.25 91.015625 18.859375 91.015625 18.453125 L 91.015625 6.25 C 91.015625 5.84375 90.9375 5.453125 90.78125 5.078125 C 90.625 4.703125 90.40625 4.371094 90.117188 4.085938 C 89.828125 3.796875 89.496094 3.578125 89.121094 3.421875 C 88.746094 3.265625 88.351562 3.1875 87.945312 3.1875 Z M 69.613281 16.902344 C 69.613281 17.128906 69.53125 17.320312 69.371094 17.480469 C 69.214844 17.636719 69.019531 17.71875 68.792969 17.71875 C 68.566406 17.71875 68.375 17.636719 68.214844 17.480469 C 68.054688 17.320312 67.976562 17.128906 67.976562 16.902344 L 67.976562 8.230469 C 67.976562 8.007812 68.054688 7.8125 68.214844 7.65625 C 68.375 7.496094 68.566406 7.414062 68.792969 7.414062 C 69.019531 7.414062 69.214844 7.496094 69.371094 7.65625 C 69.53125 7.8125 69.613281 8.007812 69.613281 8.230469 Z M 73.421875 16.902344 C 73.421875 17.128906 73.339844 17.320312 73.179688 17.480469 C 73.019531 17.636719 72.828125 17.71875 72.601562 17.71875 C 72.375 17.71875 72.183594 17.636719 72.023438 17.480469 C 71.863281 17.320312 71.78125 17.128906 71.78125 16.902344 L 71.78125 11.167969 C 71.78125 10.945312 71.863281 10.753906 72.023438 10.59375 C 72.183594 10.433594 72.375 10.355469 72.601562 10.355469 C 72.828125 10.355469 73.019531 10.433594 73.179688 10.59375 C 73.339844 10.753906 73.421875 10.945312 73.421875 11.167969 Z M 73.539062 8.550781 C 73.539062 8.796875 73.453125 9.003906 73.28125 9.179688 C 73.105469 9.351562 72.898438 9.4375 72.652344 9.4375 L 72.574219 9.4375 C 72.328125 9.4375 72.117188 9.351562 71.945312 9.179688 C 71.769531 9.003906 71.683594 8.796875 71.683594 8.550781 L 71.683594 8.5 C 71.683594 8.253906 71.769531 8.046875 71.945312 7.875 C 72.117188 7.699219 72.328125 7.613281 72.574219 7.613281 L 72.652344 7.613281 C 72.898438 7.613281 73.105469 7.699219 73.28125 7.875 C 73.453125 8.046875 73.539062 8.253906 73.539062 8.5 Z M 79.300781 17.515625 C 78.917969 17.691406 78.515625 17.777344 78.09375 17.777344 C 76.679688 17.777344 75.933594 17.097656 75.933594 15.808594 L 75.933594 11.871094 L 75.1875 11.871094 C 75.058594 11.875 74.949219 11.832031 74.859375 11.742188 C 74.769531 11.652344 74.722656 11.542969 74.726562 11.414062 C 74.730469 11.257812 74.792969 11.128906 74.921875 11.03125 L 76.730469 9.265625 C 76.832031 9.152344 76.953125 9.09375 77.101562 9.085938 C 77.234375 9.085938 77.34375 9.132812 77.433594 9.226562 C 77.523438 9.316406 77.570312 9.429688 77.566406 9.558594 L 77.566406 10.421875 L 78.875 10.421875 C 79.078125 10.421875 79.246094 10.492188 79.390625 10.636719 C 79.53125 10.777344 79.601562 10.949219 79.601562 11.148438 C 79.601562 11.347656 79.53125 11.519531 79.390625 11.660156 C 79.246094 11.800781 79.078125 11.875 78.875 11.875 L 77.566406 11.875 L 77.566406 15.703125 C 77.566406 16.257812 77.839844 16.300781 78.234375 16.300781 C 78.394531 16.304688 78.554688 16.28125 78.710938 16.234375 C 78.816406 16.203125 78.925781 16.183594 79.039062 16.183594 C 79.226562 16.183594 79.386719 16.253906 79.519531 16.386719 C 79.652344 16.519531 79.722656 16.679688 79.726562 16.867188 C 79.726562 17.175781 79.582031 17.390625 79.300781 17.515625 Z M 84.320312 16.238281 C 84.925781 16.257812 85.5 16.128906 86.035156 15.847656 C 86.140625 15.792969 86.253906 15.769531 86.371094 15.773438 C 86.574219 15.769531 86.75 15.835938 86.894531 15.980469 C 87.039062 16.121094 87.113281 16.292969 87.113281 16.496094 C 87.09375 16.808594 86.945312 17.03125 86.660156 17.167969 C 86.089844 17.492188 85.472656 17.78125 84.203125 17.78125 C 81.902344 17.78125 80.519531 16.378906 80.519531 14.035156 C 80.519531 11.273438 82.363281 10.289062 83.925781 10.289062 C 86.261719 10.289062 87.324219 12.140625 87.324219 13.859375 C 87.328125 14.085938 87.25 14.28125 87.089844 14.441406 C 86.925781 14.601562 86.730469 14.675781 86.503906 14.667969 L 82.207031 14.667969 C 82.417969 15.699219 83.144531 16.238281 84.320312 16.238281 Z M 84.320312 16.238281 " fill-opacity="1" fill-rule="nonzero"/></g><path fill="#ffffff" d="M 83.953125 11.730469 C 83.738281 11.726562 83.527344 11.761719 83.328125 11.835938 C 83.125 11.910156 82.941406 12.019531 82.78125 12.164062 C 82.617188 12.304688 82.488281 12.472656 82.390625 12.664062 C 82.292969 12.855469 82.230469 13.058594 82.210938 13.273438 L 85.710938 13.273438 C 85.6875 13.058594 85.628906 12.855469 85.527344 12.664062 C 85.429688 12.472656 85.296875 12.304688 85.132812 12.160156 C 84.972656 12.019531 84.789062 11.910156 84.585938 11.835938 C 84.382812 11.761719 84.171875 11.726562 83.953125 11.730469 Z M 83.953125 11.730469 " fill-opacity="1" fill-rule="nonzero"/></svg>