<svg xmlns="http://www.w3.org/2000/svg" xmlns:xlink="http://www.w3.org/1999/xlink" width="125" zoomAndPan="magnify" viewBox="0 0 93.75 30.000001" height="40" preserveAspectRatio="xMidYMid meet" version="1.0"><path fill="#ffffff" d="M 30.902344 11.832031 C 29.523438 11.832031 28.503906 12.941406 28.503906 14.414062 C 28.488281 14.753906 28.539062 15.078125 28.660156 15.394531 C 28.78125 15.710938 28.957031 15.992188 29.191406 16.234375 C 29.429688 16.476562 29.703125 16.664062 30.015625 16.796875 C 30.328125 16.929688 30.65625 16.996094 30.996094 16.996094 C 31.847656 17.003906 32.546875 16.683594 33.085938 16.035156 L 32.796875 15.777344 C 32.738281 15.71875 32.667969 15.691406 32.585938 15.691406 C 32.503906 15.691406 32.433594 15.71875 32.375 15.777344 C 31.992188 16.121094 31.546875 16.292969 31.03125 16.289062 C 30.136719 16.289062 29.347656 15.714844 29.347656 14.414062 C 29.347656 13.117188 30.09375 12.539062 30.902344 12.539062 C 31.109375 12.539062 31.308594 12.578125 31.5 12.660156 C 31.691406 12.738281 31.859375 12.855469 32.003906 13.003906 C 32.144531 13.152344 32.253906 13.324219 32.328125 13.515625 C 32.402344 13.707031 32.433594 13.90625 32.425781 14.113281 L 30.339844 14.113281 C 30.25 14.113281 30.171875 14.144531 30.105469 14.207031 C 30.042969 14.269531 30.011719 14.347656 30.011719 14.4375 L 30.011719 14.742188 L 32.796875 14.742188 C 32.914062 14.742188 33.015625 14.703125 33.097656 14.617188 C 33.179688 14.535156 33.21875 14.433594 33.214844 14.316406 C 33.15625 12.796875 32.1875 11.832031 30.902344 11.832031 Z M 30.902344 11.832031 " fill-opacity="1" fill-rule="nonzero"/><path fill="#ffffff" d="M 43.261719 11.863281 C 42.613281 11.871094 42 12.015625 41.417969 12.300781 L 41.578125 12.667969 C 41.601562 12.753906 41.65625 12.816406 41.734375 12.851562 C 41.816406 12.890625 41.898438 12.894531 41.980469 12.859375 C 42.371094 12.707031 42.777344 12.625 43.195312 12.621094 C 44.121094 12.621094 44.625 13.070312 44.625 13.902344 L 44.625 15.074219 C 44.625 15.792969 43.925781 16.339844 43.019531 16.339844 C 42.4375 16.339844 41.820312 16.050781 41.820312 15.410156 C 41.820312 14.769531 42.339844 14.429688 43.214844 14.429688 L 43.648438 14.429688 C 43.742188 14.429688 43.816406 14.398438 43.882812 14.332031 C 43.945312 14.269531 43.980469 14.191406 43.980469 14.101562 L 43.980469 13.792969 L 43.136719 13.792969 C 41.796875 13.792969 40.984375 14.390625 40.984375 15.429688 C 40.984375 16.46875 41.957031 17 42.863281 17 C 43.5625 17.019531 44.140625 16.769531 44.597656 16.246094 L 44.597656 16.574219 C 44.597656 16.664062 44.628906 16.742188 44.695312 16.804688 C 44.757812 16.871094 44.835938 16.902344 44.925781 16.902344 L 45.394531 16.902344 L 45.394531 13.875 C 45.398438 12.566406 44.640625 11.863281 43.261719 11.863281 Z M 43.261719 11.863281 " fill-opacity="1" fill-rule="nonzero"/><path fill="#ffffff" d="M 21.871094 10.199219 L 21.386719 10.199219 L 21.386719 10.679688 C 21.386719 10.769531 21.417969 10.84375 21.484375 10.910156 C 21.546875 10.972656 21.625 11.003906 21.71875 11.003906 L 22.203125 11.003906 L 22.203125 10.519531 C 22.199219 10.429688 22.167969 10.351562 22.105469 10.289062 C 22.039062 10.230469 21.960938 10.199219 21.871094 10.199219 Z M 21.871094 10.199219 " fill-opacity="1" fill-rule="nonzero"/><path fill="#ffffff" d="M 67.53125 10.199219 L 67.046875 10.199219 L 67.046875 10.679688 C 67.046875 10.769531 67.078125 10.84375 67.144531 10.910156 C 67.207031 10.972656 67.285156 11.003906 67.378906 11.003906 L 67.863281 11.003906 L 67.863281 10.519531 C 67.863281 10.429688 67.828125 10.351562 67.765625 10.289062 C 67.699219 10.230469 67.621094 10.199219 67.53125 10.199219 Z M 67.53125 10.199219 " fill-opacity="1" fill-rule="nonzero"/><path fill="#ffffff" d="M 16.058594 15.714844 C 15.703125 16.066406 15.269531 16.25 14.765625 16.261719 C 14.523438 16.253906 14.292969 16.203125 14.070312 16.105469 C 13.847656 16.007812 13.65625 15.871094 13.488281 15.695312 C 13.324219 15.519531 13.195312 15.320312 13.113281 15.097656 C 13.027344 14.871094 12.988281 14.640625 13 14.398438 C 12.988281 14.164062 13.023438 13.9375 13.105469 13.714844 C 13.1875 13.496094 13.308594 13.300781 13.472656 13.128906 C 13.632812 12.957031 13.824219 12.820312 14.039062 12.722656 C 14.253906 12.628906 14.480469 12.574219 14.71875 12.566406 C 15.21875 12.578125 15.648438 12.757812 15.996094 13.113281 C 16.058594 13.171875 16.132812 13.199219 16.21875 13.195312 C 16.304688 13.191406 16.378906 13.160156 16.4375 13.097656 L 16.765625 12.746094 C 16.230469 12.117188 15.550781 11.808594 14.71875 11.816406 C 14.371094 11.816406 14.039062 11.882812 13.71875 12.011719 C 13.398438 12.144531 13.113281 12.332031 12.871094 12.574219 C 12.625 12.816406 12.433594 13.097656 12.300781 13.414062 C 12.167969 13.730469 12.101562 14.0625 12.101562 14.40625 C 12.101562 14.75 12.167969 15.078125 12.300781 15.398438 C 12.433594 15.714844 12.625 15.996094 12.871094 16.238281 C 13.113281 16.480469 13.398438 16.667969 13.71875 16.800781 C 14.039062 16.929688 14.371094 16.996094 14.71875 16.996094 C 15.566406 16.992188 16.257812 16.667969 16.789062 16.015625 L 16.484375 15.726562 C 16.34375 15.605469 16.203125 15.601562 16.058594 15.714844 Z M 16.058594 15.714844 " fill-opacity="1" fill-rule="nonzero"/><path fill="#ffffff" d="M 27.105469 12.347656 L 25.644531 15.792969 L 24.1875 12.347656 C 24.074219 12.078125 23.867188 11.945312 23.574219 11.945312 L 23.121094 11.945312 L 25.140625 16.582031 C 25.226562 16.808594 25.390625 16.921875 25.636719 16.921875 C 25.882812 16.921875 26.046875 16.808594 26.132812 16.582031 L 28.171875 11.945312 L 27.734375 11.945312 C 27.433594 11.9375 27.222656 12.070312 27.105469 12.347656 Z M 27.105469 12.347656 " fill-opacity="1" fill-rule="nonzero"/><path fill="#ffffff" d="M 19.882812 11.945312 L 18.648438 11.945312 L 18.648438 10.519531 C 18.648438 10.425781 18.617188 10.351562 18.550781 10.285156 C 18.488281 10.222656 18.410156 10.191406 18.320312 10.191406 L 17.839844 10.191406 L 17.839844 15.585938 C 17.835938 15.769531 17.867188 15.949219 17.9375 16.121094 C 18.003906 16.289062 18.101562 16.441406 18.234375 16.574219 C 18.363281 16.707031 18.511719 16.808594 18.683594 16.882812 C 18.851562 16.957031 19.03125 16.992188 19.21875 16.996094 C 19.566406 17.007812 19.898438 16.929688 20.207031 16.769531 L 20.207031 16.035156 C 19.96875 16.152344 19.714844 16.214844 19.449219 16.226562 C 19.339844 16.242188 19.234375 16.234375 19.132812 16.203125 C 19.027344 16.167969 18.9375 16.113281 18.859375 16.039062 C 18.785156 15.960938 18.730469 15.871094 18.695312 15.769531 C 18.660156 15.667969 18.652344 15.5625 18.667969 15.457031 L 18.667969 12.667969 L 20.222656 12.667969 L 20.222656 12.265625 C 20.222656 12.175781 20.1875 12.097656 20.121094 12.035156 C 20.054688 11.972656 19.972656 11.941406 19.882812 11.945312 Z M 19.882812 11.945312 " fill-opacity="1" fill-rule="nonzero"/><path fill="#ffffff" d="M 21.871094 11.945312 L 21.386719 11.945312 L 21.386719 16.582031 C 21.378906 16.675781 21.40625 16.753906 21.476562 16.820312 C 21.542969 16.886719 21.621094 16.917969 21.71875 16.90625 L 22.203125 16.90625 L 22.203125 12.265625 C 22.199219 12.179688 22.167969 12.101562 22.105469 12.039062 C 22.039062 11.976562 21.960938 11.945312 21.871094 11.945312 Z M 21.871094 11.945312 " fill-opacity="1" fill-rule="nonzero"/><path fill="#ffffff" d="M 39.570312 15.472656 C 39.035156 15.988281 38.390625 16.246094 37.640625 16.242188 C 36.21875 16.242188 35.117188 15.058594 35.117188 13.550781 C 35.117188 12.042969 36.203125 10.886719 37.640625 10.886719 C 38.359375 10.902344 38.984375 11.140625 39.519531 11.609375 C 39.675781 11.730469 39.824219 11.71875 39.960938 11.578125 L 40.3125 11.207031 C 39.59375 10.464844 38.710938 10.101562 37.671875 10.117188 C 37.441406 10.117188 37.214844 10.136719 36.992188 10.179688 C 36.765625 10.222656 36.546875 10.285156 36.335938 10.371094 C 36.125 10.457031 35.925781 10.566406 35.734375 10.691406 C 35.542969 10.816406 35.371094 10.960938 35.210938 11.125 C 35.050781 11.285156 34.90625 11.460938 34.78125 11.652344 C 34.660156 11.84375 34.554688 12.042969 34.472656 12.253906 C 34.390625 12.464844 34.328125 12.683594 34.289062 12.90625 C 34.25 13.128906 34.234375 13.355469 34.242188 13.582031 C 34.226562 14.035156 34.300781 14.472656 34.46875 14.898438 C 34.632812 15.320312 34.875 15.695312 35.195312 16.019531 C 35.515625 16.34375 35.886719 16.59375 36.308594 16.769531 C 36.730469 16.945312 37.171875 17.03125 37.628906 17.027344 C 38.148438 17.035156 38.644531 16.933594 39.117188 16.726562 C 39.59375 16.515625 40 16.222656 40.347656 15.839844 L 40.015625 15.511719 C 39.957031 15.449219 39.886719 15.414062 39.800781 15.40625 C 39.714844 15.398438 39.640625 15.421875 39.570312 15.472656 Z M 39.570312 15.472656 " fill-opacity="1" fill-rule="nonzero"/><path fill="#ffffff" d="M 52.367188 11.832031 C 52.015625 11.824219 51.6875 11.902344 51.378906 12.070312 C 51.070312 12.238281 50.820312 12.46875 50.636719 12.765625 C 50.484375 12.46875 50.265625 12.238281 49.980469 12.070312 C 49.691406 11.902344 49.382812 11.820312 49.046875 11.832031 C 48.738281 11.828125 48.445312 11.898438 48.171875 12.042969 C 47.898438 12.191406 47.679688 12.390625 47.511719 12.648438 L 47.511719 12.265625 C 47.511719 12.175781 47.476562 12.101562 47.414062 12.035156 C 47.347656 11.972656 47.269531 11.941406 47.179688 11.941406 L 46.695312 11.941406 L 46.695312 16.902344 L 47.179688 16.902344 C 47.269531 16.902344 47.347656 16.871094 47.414062 16.804688 C 47.476562 16.742188 47.511719 16.664062 47.511719 16.574219 L 47.511719 14.078125 C 47.511719 13.210938 48.0625 12.589844 48.832031 12.589844 C 49.601562 12.589844 50.054688 13.117188 50.054688 13.996094 L 50.054688 16.582031 C 50.054688 16.671875 50.089844 16.75 50.152344 16.8125 C 50.21875 16.875 50.296875 16.90625 50.386719 16.90625 L 50.871094 16.90625 L 50.871094 14.046875 C 50.871094 13.035156 51.53125 12.589844 52.191406 12.589844 C 52.972656 12.589844 53.425781 13.101562 53.425781 14.015625 L 53.425781 16.582031 C 53.425781 16.671875 53.457031 16.75 53.519531 16.8125 C 53.585938 16.875 53.664062 16.90625 53.753906 16.90625 L 54.242188 16.90625 L 54.242188 13.835938 C 54.222656 12.605469 53.511719 11.832031 52.367188 11.832031 Z M 52.367188 11.832031 " fill-opacity="1" fill-rule="nonzero"/><path fill="#ffffff" d="M 58.222656 11.832031 C 57.851562 11.832031 57.5 11.917969 57.175781 12.089844 C 56.847656 12.265625 56.582031 12.507812 56.378906 12.8125 L 56.378906 12.265625 C 56.378906 12.175781 56.34375 12.101562 56.28125 12.035156 C 56.214844 11.972656 56.136719 11.941406 56.046875 11.941406 L 55.5625 11.941406 L 55.5625 18.101562 C 55.5625 18.191406 55.59375 18.269531 55.65625 18.332031 C 55.722656 18.394531 55.800781 18.429688 55.890625 18.429688 L 56.378906 18.429688 L 56.378906 16.050781 C 56.585938 16.351562 56.855469 16.582031 57.183594 16.75 C 57.507812 16.917969 57.855469 17 58.222656 16.996094 C 59.390625 16.996094 60.621094 16.082031 60.621094 14.414062 C 60.621094 12.75 59.371094 11.832031 58.222656 11.832031 Z M 58.09375 16.261719 C 57.855469 16.253906 57.625 16.203125 57.40625 16.105469 C 57.1875 16.007812 56.996094 15.875 56.835938 15.699219 C 56.671875 15.527344 56.546875 15.328125 56.464844 15.105469 C 56.382812 14.882812 56.347656 14.652344 56.359375 14.414062 C 56.347656 14.179688 56.382812 13.949219 56.464844 13.726562 C 56.546875 13.503906 56.671875 13.304688 56.832031 13.128906 C 56.996094 12.957031 57.1875 12.820312 57.40625 12.722656 C 57.625 12.625 57.855469 12.574219 58.09375 12.566406 C 59.066406 12.566406 59.777344 13.351562 59.777344 14.414062 C 59.777344 15.472656 59.082031 16.261719 58.09375 16.261719 Z M 58.09375 16.261719 " fill-opacity="1" fill-rule="nonzero"/><path fill="#ffffff" d="M 67.515625 11.945312 L 67.03125 11.945312 L 67.03125 16.582031 C 67.03125 16.671875 67.0625 16.75 67.128906 16.8125 C 67.191406 16.875 67.269531 16.90625 67.359375 16.90625 L 67.847656 16.90625 L 67.847656 12.265625 C 67.84375 12.179688 67.8125 12.101562 67.746094 12.039062 C 67.683594 11.976562 67.605469 11.945312 67.515625 11.945312 Z M 67.515625 11.945312 " fill-opacity="1" fill-rule="nonzero"/><path fill="#ffffff" d="M 73.214844 12.265625 L 73.214844 12.730469 C 73.09375 12.574219 72.953125 12.4375 72.792969 12.316406 C 72.632812 12.195312 72.464844 12.097656 72.277344 12.019531 C 72.09375 11.941406 71.902344 11.886719 71.707031 11.859375 C 71.507812 11.828125 71.308594 11.824219 71.109375 11.84375 C 70.910156 11.867188 70.71875 11.910156 70.53125 11.980469 C 70.34375 12.046875 70.167969 12.140625 70.003906 12.253906 C 69.835938 12.367188 69.691406 12.496094 69.558594 12.648438 C 69.429688 12.796875 69.320312 12.960938 69.230469 13.140625 C 69.144531 13.320312 69.078125 13.503906 69.039062 13.699219 C 68.996094 13.894531 68.980469 14.089844 68.992188 14.285156 C 69 14.484375 69.035156 14.679688 69.09375 14.867188 C 69.15625 15.058594 69.238281 15.234375 69.34375 15.40625 C 69.449219 15.574219 69.570312 15.726562 69.714844 15.863281 C 69.859375 16 70.019531 16.117188 70.195312 16.214844 C 70.371094 16.3125 70.554688 16.386719 70.746094 16.4375 C 70.941406 16.488281 71.136719 16.515625 71.335938 16.515625 C 71.710938 16.519531 72.0625 16.4375 72.394531 16.269531 C 72.726562 16.105469 73 15.871094 73.214844 15.570312 L 73.214844 16.019531 C 73.214844 17.09375 72.585938 17.703125 71.46875 17.703125 C 70.875 17.703125 70.324219 17.546875 69.816406 17.238281 C 69.742188 17.1875 69.664062 17.171875 69.574219 17.195312 C 69.488281 17.21875 69.421875 17.269531 69.382812 17.347656 L 69.171875 17.71875 C 69.867188 18.191406 70.640625 18.425781 71.484375 18.421875 C 73.105469 18.421875 74.027344 17.542969 74.027344 16 L 74.027344 11.945312 L 73.539062 11.945312 C 73.453125 11.949219 73.375 11.980469 73.3125 12.042969 C 73.25 12.105469 73.21875 12.179688 73.214844 12.265625 Z M 71.453125 15.792969 C 71.230469 15.800781 71.019531 15.761719 70.8125 15.683594 C 70.609375 15.601562 70.425781 15.484375 70.269531 15.328125 C 70.113281 15.175781 69.996094 14.996094 69.914062 14.792969 C 69.832031 14.585938 69.792969 14.375 69.800781 14.15625 C 69.796875 13.941406 69.835938 13.730469 69.917969 13.53125 C 70 13.328125 70.121094 13.152344 70.277344 13 C 70.433594 12.847656 70.613281 12.734375 70.816406 12.65625 C 71.023438 12.578125 71.234375 12.546875 71.453125 12.554688 C 71.679688 12.539062 71.902344 12.566406 72.117188 12.640625 C 72.332031 12.714844 72.519531 12.828125 72.6875 12.980469 C 72.855469 13.132812 72.984375 13.3125 73.074219 13.519531 C 73.167969 13.726562 73.210938 13.941406 73.210938 14.164062 C 73.210938 14.390625 73.167969 14.605469 73.074219 14.8125 C 72.984375 15.019531 72.855469 15.199219 72.6875 15.351562 C 72.519531 15.503906 72.332031 15.617188 72.117188 15.691406 C 71.902344 15.765625 71.679688 15.792969 71.453125 15.777344 Z M 71.453125 15.792969 " fill-opacity="1" fill-rule="nonzero"/><path fill="#ffffff" d="M 77.8125 11.832031 C 77.480469 11.820312 77.167969 11.890625 76.875 12.042969 C 76.582031 12.195312 76.34375 12.40625 76.164062 12.683594 L 76.164062 12.265625 C 76.164062 12.175781 76.128906 12.101562 76.066406 12.035156 C 76 11.972656 75.921875 11.941406 75.832031 11.941406 L 75.347656 11.941406 L 75.347656 16.902344 L 75.832031 16.902344 C 75.921875 16.902344 76 16.871094 76.066406 16.804688 C 76.128906 16.742188 76.164062 16.664062 76.164062 16.574219 L 76.164062 14.054688 C 76.148438 13.863281 76.175781 13.675781 76.242188 13.492188 C 76.308594 13.308594 76.410156 13.148438 76.546875 13.007812 C 76.683594 12.867188 76.839844 12.761719 77.023438 12.6875 C 77.203125 12.613281 77.394531 12.578125 77.589844 12.582031 C 78.414062 12.582031 78.910156 13.109375 78.910156 14.007812 L 78.910156 16.574219 C 78.910156 16.664062 78.941406 16.742188 79.007812 16.804688 C 79.070312 16.871094 79.148438 16.902344 79.242188 16.902344 L 79.726562 16.902344 L 79.726562 13.820312 C 79.742188 12.621094 78.996094 11.832031 77.8125 11.832031 Z M 77.8125 11.832031 " fill-opacity="1" fill-rule="nonzero"/><path fill="#ffffff" d="M 88.160156 13.613281 L 83.082031 10.339844 L 83.082031 10.996094 C 83.082031 11.226562 83.179688 11.410156 83.371094 11.539062 L 87.566406 14.3125 L 83.371094 17.070312 C 83.179688 17.199219 83.085938 17.375 83.082031 17.605469 L 83.082031 18.292969 L 88.164062 14.992188 C 88.40625 14.824219 88.53125 14.59375 88.535156 14.300781 C 88.539062 14.003906 88.414062 13.773438 88.160156 13.613281 Z M 88.160156 13.613281 " fill-opacity="1" fill-rule="nonzero"/><path fill="#ffffff" d="M 85.035156 14.53125 C 85.285156 14.6875 85.535156 14.6875 85.78125 14.53125 L 86.140625 14.292969 L 83.496094 12.507812 C 83.410156 12.453125 83.324219 12.449219 83.230469 12.496094 C 83.140625 12.542969 83.09375 12.617188 83.089844 12.71875 L 83.089844 13.25 L 84.46875 14.160156 Z M 85.035156 14.53125 " fill-opacity="1" fill-rule="nonzero"/><path fill="#ffffff" d="M 63.632812 11.863281 C 62.984375 11.871094 62.367188 12.015625 61.785156 12.300781 L 61.945312 12.667969 C 61.96875 12.753906 62.019531 12.816406 62.101562 12.851562 C 62.183594 12.890625 62.265625 12.894531 62.347656 12.859375 C 62.738281 12.707031 63.144531 12.625 63.5625 12.621094 C 64.484375 12.621094 64.988281 13.070312 64.988281 13.902344 L 64.988281 15.074219 C 64.988281 15.792969 64.292969 16.339844 63.386719 16.339844 C 62.800781 16.339844 62.1875 16.050781 62.1875 15.410156 C 62.1875 14.769531 62.703125 14.429688 63.578125 14.429688 L 64.015625 14.429688 C 64.105469 14.429688 64.183594 14.398438 64.25 14.332031 C 64.3125 14.269531 64.347656 14.191406 64.347656 14.101562 L 64.347656 13.792969 L 63.503906 13.792969 C 62.160156 13.792969 61.351562 14.390625 61.351562 15.429688 C 61.351562 16.46875 62.320312 17 63.230469 17 C 63.925781 17.019531 64.503906 16.769531 64.960938 16.246094 L 64.960938 16.574219 C 64.960938 16.664062 64.992188 16.742188 65.058594 16.804688 C 65.121094 16.871094 65.199219 16.902344 65.289062 16.902344 L 65.757812 16.902344 L 65.757812 13.875 C 65.769531 12.566406 65.007812 11.863281 63.632812 11.863281 Z M 63.632812 11.863281 " fill-opacity="1" fill-rule="nonzero"/><path fill="#ffffff" d="M 8.445312 10.199219 C 8.328125 10.179688 8.21875 10.203125 8.117188 10.261719 C 8.015625 10.324219 7.945312 10.414062 7.910156 10.523438 L 4.984375 16.902344 L 5.421875 16.902344 C 5.707031 16.894531 5.910156 16.765625 6.035156 16.515625 L 6.652344 15.183594 L 8.960938 15.183594 C 9.054688 15.183594 9.132812 15.152344 9.195312 15.089844 C 9.261719 15.023438 9.292969 14.949219 9.292969 14.855469 L 9.292969 14.414062 L 6.980469 14.414062 L 8.445312 11.207031 L 10.8125 16.492188 C 10.921875 16.761719 11.125 16.898438 11.417969 16.902344 L 11.886719 16.902344 L 8.984375 10.535156 C 8.941406 10.421875 8.871094 10.335938 8.773438 10.273438 C 8.671875 10.210938 8.5625 10.1875 8.445312 10.199219 Z M 8.445312 10.199219 " fill-opacity="1" fill-rule="nonzero"/></svg>